HIERARCHY
ROOT Hips
{
  OFFSET 0.687513 137.715 -0.175746
  CHANNELS 6 Xposition Yposition Zposition Zrotation Xrotation Yrotation
  JOINT Spine
  {
    OFFSET 0 10.1816 0.1315
    CHANNELS 6 Xposition Yposition Zposition Zrotation Xrotation Yrotation
    JOINT Spine1
    {
      OFFSET 0 10.0835 -1.0008
      CHANNELS 6 Xposition Yposition Zposition Zrotation Xrotation Yrotation
      JOINT Spine2
      {
        OFFSET 0 9.1 -1.3734
        CHANNELS 6 Xposition Yposition Zposition Zrotation Xrotation Yrotation
        JOINT Neck
        {
          OFFSET 0 16.6717 -2.5162
          CHANNELS 6 Xposition Yposition Zposition Zrotation Xrotation Yrotation
          JOINT Head
          {
            OFFSET 0 9.6179 1.685
            CHANNELS 6 Xposition Yposition Zposition Zrotation Xrotation Yrotation
            JOINT HeadTop_End
            {
              OFFSET 0 17.8152 2.585
              CHANNELS 6 Xposition Yposition Zposition Zrotation Xrotation Yrotation
              End Site
              {
                OFFSET 0 0 0
              }
            }
            JOINT LeftEye
            {
              OFFSET 3.0676 6.4095 9.2836
              CHANNELS 6 Xposition Yposition Zposition Zrotation Xrotation Yrotation
              End Site
              {
                OFFSET 0 0 0
              }
            }
            JOINT RightEye
            {
              OFFSET -3.0676 6.4095 9.2835
              CHANNELS 6 Xposition Yposition Zposition Zrotation Xrotation Yrotation
              End Site
              {
                OFFSET 0 0 0
              }
            }
          }
        }
        JOINT LeftShoulder
        {
          OFFSET 4.5704 10.946 -2.628
          CHANNELS 6 Xposition Yposition Zposition Zrotation Xrotation Yrotation
          JOINT LeftArm
          {
            OFFSET 10.5924 -0.5246 -2.2321
            CHANNELS 6 Xposition Yposition Zposition Zrotation Xrotation Yrotation
            JOINT LeftForeArm
            {
              OFFSET 27.8415 -0.0001 0
              CHANNELS 6 Xposition Yposition Zposition Zrotation Xrotation Yrotation
              JOINT LeftHand
              {
                OFFSET 28.3288 0 0
                CHANNELS 6 Xposition Yposition Zposition Zrotation Xrotation Yrotation
                JOINT LeftHandThumb1
                {
                  OFFSET 2.4661 -1.575 2.6824
                  CHANNELS 6 Xposition Yposition Zposition Zrotation Xrotation Yrotation
                  JOINT LeftHandThumb2
                  {
                    OFFSET 3.2298 -1.8647 1.8647
                    CHANNELS 6 Xposition Yposition Zposition Zrotation Xrotation Yrotation
                    JOINT LeftHandThumb3
                    {
                      OFFSET 2.6526 -1.5315 1.5315
                      CHANNELS 6 Xposition Yposition Zposition Zrotation Xrotation Yrotation
                      End Site
                      {
                        OFFSET 1.9546 -1.1285 1.1285
                      }
                    }
                  }
                }
                JOINT LeftHandIndex1
                {
                  OFFSET 9.1093 -0.5171 2.2601
                  CHANNELS 6 Xposition Yposition Zposition Zrotation Xrotation Yrotation
                  JOINT LeftHandIndex2
                  {
                    OFFSET 3.6764 0 0
                    CHANNELS 6 Xposition Yposition Zposition Zrotation Xrotation Yrotation
                    JOINT LeftHandIndex3
                    {
                      OFFSET 2.8831 0 0
                      CHANNELS 6 Xposition Yposition Zposition Zrotation Xrotation Yrotation
                      End Site
                      {
                        OFFSET 2.3927 0 0
                      }
                    }
                  }
                }
                JOINT LeftHandMiddle1
                {
                  OFFSET 9.5334 0 0
                  CHANNELS 6 Xposition Yposition Zposition Zrotation Xrotation Yrotation
                  JOINT LeftHandMiddle2
                  {
                    OFFSET 3.6982 0 0
                    CHANNELS 6 Xposition Yposition Zposition Zrotation Xrotation Yrotation
                    JOINT LeftHandMiddle3
                    {
                      OFFSET 2.9509 0 0
                      CHANNELS 6 Xposition Yposition Zposition Zrotation Xrotation Yrotation
                      End Site
                      {
                        OFFSET 2.8339 0 0
                      }
                    }
                  }
                }
                JOINT LeftHandRing1
                {
                  OFFSET 9.1045 -0.0439 -1.8651
                  CHANNELS 6 Xposition Yposition Zposition Zrotation Xrotation Yrotation
                  JOINT LeftHandRing2
                  {
                    OFFSET 3.154 0 0
                    CHANNELS 6 Xposition Yposition Zposition Zrotation Xrotation Yrotation
                    JOINT LeftHandRing3
                    {
                      OFFSET 2.9377 0 0
                      CHANNELS 6 Xposition Yposition Zposition Zrotation Xrotation Yrotation
                      End Site
                      {
                        OFFSET 2.6475 0 0
                      }
                    }
                  }
                }
                JOINT LeftHandPinky1
                {
                  OFFSET 8.0778 -0.4887 -3.8061
                  CHANNELS 6 Xposition Yposition Zposition Zrotation Xrotation Yrotation
                  JOINT LeftHandPinky2
                  {
                    OFFSET 3.6 0 0
                    CHANNELS 6 Xposition Yposition Zposition Zrotation Xrotation Yrotation
                    JOINT LeftHandPinky3
                    {
                      OFFSET 2.1142 0 0
                      CHANNELS 6 Xposition Yposition Zposition Zrotation Xrotation Yrotation
                      End Site
                      {
                        OFFSET 1.9757 0 0
                      }
                    }
                  }
                }
              }
            }
          }
        }
        JOINT RightShoulder
        {
          OFFSET -4.57 10.9462 -2.628
          CHANNELS 6 Xposition Yposition Zposition Zrotation Xrotation Yrotation
          JOINT RightArm
          {
            OFFSET -10.5928 -0.5248 -2.2321
            CHANNELS 6 Xposition Yposition Zposition Zrotation Xrotation Yrotation
            JOINT RightForeArm
            {
              OFFSET -27.8415 0 0
              CHANNELS 6 Xposition Yposition Zposition Zrotation Xrotation Yrotation
              JOINT RightHand
              {
                OFFSET -28.3288 0 0.0001
                CHANNELS 6 Xposition Yposition Zposition Zrotation Xrotation Yrotation
                JOINT RightHandPinky1
                {
                  OFFSET -8.0767 -0.4885 -3.806
                  CHANNELS 6 Xposition Yposition Zposition Zrotation Xrotation Yrotation
                  JOINT RightHandPinky2
                  {
                    OFFSET -3.6 0 0.0001
                    CHANNELS 6 Xposition Yposition Zposition Zrotation Xrotation Yrotation
                    JOINT RightHandPinky3
                    {
                      OFFSET -2.1142 0 0
                      CHANNELS 6 Xposition Yposition Zposition Zrotation Xrotation Yrotation
                      End Site
                      {
                        OFFSET -1.9757 0 0
                      }
                    }
                  }
                }
                JOINT RightHandRing1
                {
                  OFFSET -9.1036 -0.0439 -1.8651
                  CHANNELS 6 Xposition Yposition Zposition Zrotation Xrotation Yrotation
                  JOINT RightHandRing2
                  {
                    OFFSET -3.154 0 0
                    CHANNELS 6 Xposition Yposition Zposition Zrotation Xrotation Yrotation
                    JOINT RightHandRing3
                    {
                      OFFSET -2.9377 0 0
                      CHANNELS 6 Xposition Yposition Zposition Zrotation Xrotation Yrotation
                      End Site
                      {
                        OFFSET -2.6475 0 0
                      }
                    }
                  }
                }
                JOINT RightHandMiddle1
                {
                  OFFSET -9.5325 0 0
                  CHANNELS 6 Xposition Yposition Zposition Zrotation Xrotation Yrotation
                  JOINT RightHandMiddle2
                  {
                    OFFSET -3.6982 0 0
                    CHANNELS 6 Xposition Yposition Zposition Zrotation Xrotation Yrotation
                    JOINT RightHandMiddle3
                    {
                      OFFSET -2.9509 0 0
                      CHANNELS 6 Xposition Yposition Zposition Zrotation Xrotation Yrotation
                      End Site
                      {
                        OFFSET -2.8339 0 0.0001
                      }
                    }
                  }
                }
                JOINT RightHandIndex1
                {
                  OFFSET -9.1083 -0.5168 2.2601
                  CHANNELS 6 Xposition Yposition Zposition Zrotation Xrotation Yrotation
                  JOINT RightHandIndex2
                  {
                    OFFSET -3.6764 0 0
                    CHANNELS 6 Xposition Yposition Zposition Zrotation Xrotation Yrotation
                    JOINT RightHandIndex3
                    {
                      OFFSET -2.8831 0 0
                      CHANNELS 6 Xposition Yposition Zposition Zrotation Xrotation Yrotation
                      End Site
                      {
                        OFFSET -2.3927 0 0
                      }
                    }
                  }
                }
                JOINT RightHandThumb1
                {
                  OFFSET -2.4648 -1.5727 2.6826
                  CHANNELS 6 Xposition Yposition Zposition Zrotation Xrotation Yrotation
                  JOINT RightHandThumb2
                  {
                    OFFSET -3.2298 -1.8647 1.8647
                    CHANNELS 6 Xposition Yposition Zposition Zrotation Xrotation Yrotation
                    JOINT RightHandThumb3
                    {
                      OFFSET -2.6526 -1.5314 1.5314
                      CHANNELS 6 Xposition Yposition Zposition Zrotation Xrotation Yrotation
                      End Site
                      {
                        OFFSET -1.9546 -1.1285 1.1285
                      }
                    }
                  }
                }
              }
            }
          }
        }
      }
    }
  }
  JOINT LeftUpLeg
  {
    OFFSET 8.2078 -6.7517 -1.5996
    CHANNELS 6 Xposition Yposition Zposition Zrotation Xrotation Yrotation
    JOINT LeftLeg
    {
      OFFSET 0 -44.3705 0.2846
      CHANNELS 6 Xposition Yposition Zposition Zrotation Xrotation Yrotation
      JOINT LeftFoot
      {
        OFFSET 0 -44.4279 -2.9822
        CHANNELS 6 Xposition Yposition Zposition Zrotation Xrotation Yrotation
        JOINT LeftToeBase
        {
          OFFSET 0 -8.7287 10.7106
          CHANNELS 6 Xposition Yposition Zposition Zrotation Xrotation Yrotation
          End Site
          {
            OFFSET 0 -0.0007 9.2781
          }
        }
      }
    }
  }
  JOINT RightUpLeg
  {
    OFFSET -8.2078 -6.7517 -1.5996
    CHANNELS 6 Xposition Yposition Zposition Zrotation Xrotation Yrotation
    JOINT RightLeg
    {
      OFFSET 0 -44.3705 0.2862
      CHANNELS 6 Xposition Yposition Zposition Zrotation Xrotation Yrotation
      JOINT RightFoot
      {
        OFFSET 0 -44.4277 -2.9838
        CHANNELS 6 Xposition Yposition Zposition Zrotation Xrotation Yrotation
        JOINT RightToeBase
        {
          OFFSET 0 -8.7287 10.7106
          CHANNELS 6 Xposition Yposition Zposition Zrotation Xrotation Yrotation
          End Site
          {
            OFFSET 0 -0.0007 9.2781
          }
        }
      }
    }
  }
}
MOTION
Frames:	4
Frame Time:	0.0333333
0.783974 137.543 -1.71164 0.620667 -14.0362 -6.09784 8.88178e-016 10.1816 0.1315 0.318753 33.5457 -10.2071 -4.44089e-016 10.0835 -1.0008 0.982542 -8.53346 -1.54895 2.22045e-016 9.1 -1.3734 1.28617 -8.49734 -1.50293 0 16.6717 -2.5162 -4.93098 13.9214 4.34654 0 9.6179 1.685 -10.2919 -4.89857 19.2615 0 17.8152 2.585 -4.77083e-015 0 -0 3.0676 6.4095 9.2836 -4.77083e-015 0 -0 -3.0676 6.4095 9.2835 -4.77083e-015 0 -0 4.5704 10.946 -2.628 17.0601 0.425729 9.94676 10.5924 -0.5246 -2.2321 -72.8835 -33.1924 -21.3163 27.8415 -0.0001 0 -0.00020392 1.01216e-007 -60.6819 28.3288 2.84217e-014 0 40.9892 37.0244 -12.158 2.4661 -1.575 2.6824 0.84815 3.50034 8.96454 3.2298 -1.8647 1.8647 -1.05083 1.21132 -0.187228 2.6526 -1.5315 1.5315 2.94873 -2.0978 -0.884536 9.1093 -0.5171 2.2601 -32.5137 -1.0811 3.80009 3.6764 0 0 -1.87695e-005 1.71376e-006 4.88015e-006 2.8831 2.84217e-014 0 4.72012 -0.0233651 -0.566835 9.5334 1.42109e-014 7.10543e-015 -26.5043 -0.723869 3.81519 3.6982 2.84217e-014 -7.10543e-015 -5.00182 -0.0262256 0.600592 2.9509 2.84217e-014 0 2.66065 -0.00742878 -0.319765 9.1045 -0.0439 -1.8651 -26.6417 -0.729442 4.65809 3.154 0 0 -5.01933 -0.0264201 0.60268 2.9377 0 0 2.35567 -0.005822 -0.283128 8.0778 -0.4887 -3.8061 -32.3998 -1.02307 10.5532 3.6 0 0 -0.487963 0.0165597 -4.0569 2.1142 -2.84217e-014 2.13163e-014 3.76455 -0.014862 -0.452263 -4.57 10.9462 -2.628 -4.55721 0.102422 -1.27796 -10.5928 -0.5248 -2.2321 32.8917 -42.2571 -43.9174 -27.8415 0 0 1.4557e-005 6.50705e-006 102.311 -28.3288 -2.84217e-014 0.0001 -23.9234 30.7329 -20.2634 -8.0767 -0.4885 -3.806 -19.3564 -0.212609 -10.8737 -3.6 0 0.0001 33.4518 -1.15254 -3.83562 -2.1142 0 -1.42109e-014 13.9912 -0.206391 -1.68188 -9.1036 -0.0439 -1.8651 -2.9339 0.077362 -8.75424 -3.154 1.42109e-014 1.42109e-014 18.5082 -0.359872 -2.20847 -2.9377 0 1.42109e-014 10.3244 -1.61353 -1.25107 -9.5325 0 0 13.0625 -0.127235 -8.68546 -3.6982 -2.84217e-014 -1.42109e-014 10.9551 -0.126764 -1.32192 -2.9509 0 1.42109e-014 3.31226 -0.668598 -0.404487 -9.1083 -0.5168 2.2601 31.8102 -0.997609 -10.4569 -3.6764 2.84217e-014 0 0.00954184 2.75276e-007 -0.00115756 -2.8831 0 0 -4.01552 -0.0170726 0.487072 -2.4648 -1.5727 2.6826 10.8193 7.29855 -9.28897 -3.2298 -1.8647 1.8647 1.02507 2.57639 -2.89284 -2.6526 -1.5314 1.5314 -2.11731 -1.35674 0.221352 8.2078 -6.7517 -1.5996 5.49042 -1.51852 -2.73671 3.55271e-015 -44.3705 0.2846 -7.896 30.3188 11.8614 0 -44.4279 -2.9822 -9.59858 26.2441 6.63826 0 -8.7287 10.7106 -3.38597e-006 -1.47632 -1.11901e-006 -8.2078 -6.7517 -1.5996 4.64738 -58.1899 3.68564 5.82867e-016 -44.3705 0.2862 115.12 86.0767 -119.109 0 -44.4277 -2.9838 5.4477 -6.63162 0.068429 -1.77636e-015 -8.7287 10.7106 -6.89333e-006 -0.693457 5.12786e-006 
0.697776 137.644 -1.78963 0.327164 -14.004 -6.16958 0 10.1816 0.1315 0.580544 33.4034 -10.1877 0 10.0835 -1.0008 0.906805 -8.4939 -1.513 0 9.1 -1.3734 1.21027 -8.45834 -1.48536 4.44089e-016 16.6717 -2.5162 -4.80648 14.1058 4.396 0 9.6179 1.685 -10.0617 -5.05083 19.7165 -3.55271e-015 17.8152 2.585 -3.97569e-016 4.77083e-015 -0 3.0676 6.4095 9.2836 -3.97569e-016 4.77083e-015 -0 -3.0676 6.4095 9.2835 -3.97569e-016 4.77083e-015 -0 4.5704 10.946 -2.628 17.1314 0.464766 10.5216 10.5924 -0.5246 -2.2321 -74.2323 -32.1802 -21.2049 27.8415 -0.0001 0 -0.000194518 -4.14182e-006 -57.4595 28.3288 0 0 42.4952 35.5528 -12.595 2.4661 -1.575 2.6824 0.650752 3.43735 8.62362 3.2298 -1.8647 1.8647 -1.05073 1.21165 -0.187638 2.6526 -1.5315 1.5315 2.90201 -1.90407 -0.583028 9.1093 -0.5171 2.2601 -33.7219 -1.16027 3.21601 3.6764 -2.84217e-014 -2.84217e-014 -1.87695e-005 1.71376e-006 4.88015e-006 2.8831 2.84217e-014 -1.42109e-014 4.75111 -0.0236697 -0.570544 9.5334 -1.42109e-014 0 -27.3926 -0.773097 3.3505 3.6982 0 0 -5.15656 -0.0278717 0.619108 2.9509 0 0 2.66668 -0.00746351 -0.320484 9.1045 -0.0439 -1.8651 -27.4126 -0.773194 4.1977 3.154 2.84217e-014 1.42109e-014 -5.15308 -0.0278469 0.618698 2.9377 2.84217e-014 1.42109e-014 2.37804 -0.00593491 -0.285817 8.0778 -0.4887 -3.8061 -33.2317 -1.08662 9.98599 3.6 2.84217e-014 0 -0.487963 0.0165597 -4.0569 2.1142 0 -1.42109e-014 3.83518 -0.0154286 -0.460746 -4.57 10.9462 -2.628 -4.70939 0.0996582 -1.31826 -10.5928 -0.5248 -2.2321 29.1842 -43.0862 -44.5248 -27.8415 0 -3.55271e-015 4.56258e-007 -3.70347e-006 104.047 -28.3288 0 0.0001 -23.0726 30.0302 -21.4739 -8.0767 -0.4885 -3.806 -19.3861 -0.228782 -10.3098 -3.6 1.42109e-014 0.0001 33.92 -1.18413 -3.88304 -2.1142 0 0 14.3795 -0.21794 -1.7276 -9.1036 -0.0439 -1.8651 -2.86262 0.0702951 -8.35922 -3.154 -1.42109e-014 2.84217e-014 18.7748 -0.370236 -2.23918 -2.9377 2.84217e-014 1.42109e-014 10.6064 -1.57167 -1.28468 -9.5325 1.42109e-014 0 13.2527 -0.13747 -8.3691 -3.6982 2.84217e-014 0 11.1023 -0.130187 -1.33947 -2.9509 2.84217e-014 1.42109e-014 3.46698 -0.655724 -0.423243 -9.1083 -0.5168 2.2601 32.1606 -1.02522 -10.1399 -3.6764 2.84217e-014 0 0.00841005 -7.23575e-006 -0.00102142 -2.8831 5.68434e-014 0 -3.96091 -0.0166056 0.480459 -2.4648 -1.5727 2.6826 11.3127 6.18646 -6.55701 -3.2298 -1.8647 1.8647 0.234674 3.85271 -6.45031 -2.6526 -1.5314 1.5314 -2.08812 -1.23217 0.0201355 8.2078 -6.7517 -1.5996 5.95431 -2.63298 -2.05985 0 -44.3705 0.2846 -8.12422 34.4144 12.2829 0 -44.4279 -2.9822 -9.3631 26.6463 5.32053 3.55271e-015 -8.7287 10.7106 -6.55771e-006 -1.91104 5.98576e-006 -8.2078 -6.7517 -1.5996 5.51927 -57.2146 4.46966 -1.22125e-015 -44.3705 0.2862 53.5604 84.9405 -57.9408 0 -44.4277 -2.9838 5.59018 -6.67306 0.0760606 3.55271e-015 -8.7287 10.7106 -3.21387e-006 -0.77528 1.52029e-006 
0.619334 137.733 -1.83361 0.012455 -13.9805 -6.16353 -8.88178e-016 10.1816 0.1315 0.910978 33.0531 -10.0418 -4.44089e-016 10.0835 -1.0008 0.795801 -8.3277 -1.48074 2.22045e-016 9.1 -1.3734 1.08653 -8.29571 -1.46488 0 16.6717 -2.5162 -4.69161 14.3354 4.41245 0 9.6179 1.685 -9.60602 -5.44838 19.8872 0 17.8152 2.585 -1.19271e-015 1.59028e-015 -1.59028e-015 3.0676 6.4095 9.2836 -1.19271e-015 1.59028e-015 -1.59028e-015 -3.0676 6.4095 9.2835 -1.19271e-015 1.59028e-015 -1.59028e-015 4.5704 10.946 -2.628 17.1043 0.498405 11.171 10.5924 -0.5246 -2.2321 -75.1799 -30.8354 -20.7225 27.8415 -0.0001 -1.42109e-014 -0.000186854 6.25506e-007 -54.468 28.3288 0 0 43.9327 33.8883 -12.2508 2.4661 -1.575 2.6824 0.405298 3.35613 8.20765 3.2298 -1.8647 1.8647 -1.05055 1.21204 -0.187851 2.6526 -1.5315 1.5315 2.80745 -1.52173 0.0126102 9.1093 -0.5171 2.2601 -34.9726 -1.24445 3.10469 3.6764 -2.84217e-014 -1.42109e-014 -1.87695e-005 1.71376e-006 4.88015e-006 2.8831 -2.84217e-014 -1.42109e-014 4.69835 -0.0231513 -0.564239 9.5334 0 1.42109e-014 -28.3175 -0.824965 3.19185 3.6982 2.84217e-014 1.42109e-014 -5.32456 -0.0297256 0.639226 2.9509 -2.84217e-014 1.42109e-014 2.60781 -0.00713513 -0.313419 9.1045 -0.0439 -1.8651 -28.2227 -0.819091 3.94494 3.154 0 -1.42109e-014 -5.29811 -0.029437 0.636058 2.9377 2.84217e-014 0 2.34267 -0.005765 -0.281577 8.0778 -0.4887 -3.8061 -34.1144 -1.15163 9.57667 3.6 0 -1.42109e-014 -0.487963 0.0165597 -4.0569 2.1142 -2.84217e-014 1.42109e-014 3.84382 -0.0154971 -0.461778 -4.57 10.9462 -2.628 -5.01806 0.0967287 -1.13133 -10.5928 -0.5248 -2.2321 25.5264 -43.9622 -44.7179 -27.8415 0 -1.42109e-014 1.52588e-005 -5.16906e-013 105.446 -28.3288 2.84217e-014 0.0001 -22.4826 29.217 -22.4514 -8.0767 -0.4885 -3.806 -19.1481 -0.242347 -9.42841 -3.6 -7.10543e-015 0.0001 34.4185 -1.21818 -3.93322 -2.1142 0 0 14.6972 -0.227645 -1.76495 -9.1036 -0.0439 -1.8651 -2.54209 0.0592528 -7.66375 -3.154 0 -1.42109e-014 19.0938 -0.382806 -2.27583 -2.9377 2.84217e-014 0 10.8534 -1.52859 -1.3141 -9.5325 0 1.42109e-014 13.7313 -0.160921 -7.69638 -3.6982 0 -1.42109e-014 11.3006 -0.134875 -1.36309 -2.9509 0 0 3.60228 -0.678211 -0.439681 -9.1083 -0.5168 2.2601 32.904 -1.08529 -9.32372 -3.6764 0 0 0.00542266 9.93763e-006 -0.000656628 -2.8831 0 -1.42109e-014 -3.92308 -0.0163078 0.475875 -2.4648 -1.5727 2.6826 12.032 5.24645 -3.94412 -3.2298 -1.8647 1.8647 -0.488714 5.18637 -9.9697 -2.6526 -1.5314 1.5314 -2.08144 -1.15531 -0.113275 8.2078 -6.7517 -1.5996 6.48142 -4.01096 -1.23669 0 -44.3705 0.2846 -8.24241 38.9848 12.688 0 -44.4279 -2.9822 -9.75982 27.1082 5.05502 0 -8.7287 10.7106 -3.34305e-006 -2.08905 -8.3497e-007 -8.2078 -6.7517 -1.5996 6.17577 -55.4542 5.05662 -2.22045e-016 -44.3705 0.2862 27.8298 80.4344 -32.4806 1.77636e-015 -44.4277 -2.9838 5.94309 -6.14304 0.0526274 0 -8.7287 10.7106 -4.14381e-006 -0.975038 -1.18457e-006 
0.566293 137.792 -1.85202 -0.369724 -13.958 -6.07628 4.44089e-016 10.1816 0.1315 1.36524 32.5342 -9.7871 0 10.0835 -1.0008 0.663162 -8.05458 -1.46325 0 9.1 -1.3734 0.930264 -8.02886 -1.44529 0 16.6717 -2.5162 -4.59738 14.5903 4.39939 -1.77636e-015 9.6179 1.685 -8.9486 -6.06903 19.7797 -3.55271e-015 17.8152 2.585 -2.38542e-015 1.59028e-015 -1.59028e-015 3.0676 6.4095 9.2836 -2.38542e-015 1.59028e-015 -1.59028e-015 -3.0676 6.4095 9.2835 -2.38542e-015 1.59028e-015 -1.59028e-015 4.5704 10.946 -2.628 16.9213 0.524395 11.9013 10.5924 -0.5246 -2.2321 -75.6623 -29.126 -19.7297 27.8415 -0.0001 1.42109e-014 -0.000203924 1.10581e-005 -52.0341 28.3288 -1.42109e-014 0 45.0444 32.1653 -11.1258 2.4661 -1.575 2.6824 0.259015 3.27953 7.90359 3.2298 -1.8647 1.8647 -1.05038 1.21193 -0.185428 2.6526 -1.5315 1.5315 2.72065 -1.18013 0.544946 9.1093 -0.5171 2.2601 -35.7263 -1.29746 3.67309 3.6764 2.84217e-014 0 -1.87695e-005 1.71376e-006 4.88015e-006 2.8831 0 0 4.61018 -0.0222839 -0.553657 9.5334 0 0 -28.8105 -0.853134 3.56752 3.6982 0 0 -5.42424 -0.0308413 0.651165 2.9509 0 0 2.52179 -0.00666939 -0.303071 9.1045 -0.0439 -1.8651 -28.5659 -0.838315 4.20718 3.154 -2.84217e-014 0 -5.36725 -0.0301956 0.644339 2.9377 2.84217e-014 0 2.2676 -0.005402 -0.272555 8.0778 -0.4887 -3.8061 -34.3894 -1.16796 9.78592 3.6 -2.84217e-014 1.42109e-014 -0.487963 0.0165597 -4.0569 2.1142 0 -1.42109e-014 3.7723 -0.0149305 -0.453189 -4.57 10.9462 -2.628 -5.56799 0.0881882 -0.683689 -10.5928 -0.5248 -2.2321 22.1299 -44.8674 -44.5444 -27.8415 2.84217e-014 7.10543e-015 1.52588e-005 -3.09247e-012 106.447 -28.3288 2.84217e-014 0.0001 -22.1279 28.3322 -23.0403 -8.0767 -0.4885 -3.806 -18.7715 -0.238913 -8.98583 -3.6 1.42109e-014 0.0001 34.5821 -1.22944 -3.94963 -2.1142 0 0 14.734 -0.228771 -1.76927 -9.1036 -0.0439 -1.8651 -2.09204 0.0540618 -7.25069 -3.154 0 2.84217e-014 19.255 -0.389248 -2.29433 -2.9377 -2.84217e-014 0 10.8855 -1.53431 -1.31796 -9.5325 0 -1.42109e-014 14.3607 -0.186034 -7.21183 -3.6982 0 1.42109e-014 11.4445 -0.138315 -1.38022 -2.9509 2.84217e-014 1.42109e-014 3.59642 -0.73179 -0.439026 -9.1083 -0.5168 2.2601 33.8536 -1.15697 -8.64297 -3.6764 -2.84217e-014 1.42109e-014 0.00287494 -1.7112e-008 -0.000351052 -2.8831 -2.84217e-014 1.42109e-014 -3.99409 -0.0168883 0.484477 -2.4648 -1.5727 2.6826 12.6886 4.60375 -2.13196 -3.2298 -1.8647 1.8647 -1.01121 6.32748 -12.8523 -2.6526 -1.5314 1.5314 -2.07798 -1.04091 -0.316326 8.2078 -6.7517 -1.5996 7.05619 -5.78986 -0.647166 0 -44.3705 0.2846 -8.51661 43.8328 13.185 0 -44.4279 -2.9822 -10.5484 27.1602 5.38345 0 -8.7287 10.7106 -9.10921e-007 -1.90087 1.95168e-007 -8.2078 -6.7517 -1.5996 6.69703 -53.0512 5.44565 -6.66134e-016 -44.3705 0.2862 17.9527 74.7889 -22.9791 0 -44.4277 -2.9838 6.26901 -5.5709 0.0240088 -3.55271e-015 -8.7287 10.7106 -9.49381e-006 -0.953608 -6.10279e-007 
